<svg width="1024" height="128" xmlns="http://www.w3.org/2000/svg"><polyline fill="none" stroke="black" stroke-width="1" points="0,64 1,60 2,56 3,52 4,48 5,44 6,41 7,37 8,34 9,30 10,27 11,24 12,21 13,18 14,16 15,13 16,11 17,9 18,7 19,6 20,5 21,3 22,3 23,2 24,2 25,2 26,2 27,2 28,3 29,3 30,4 31,6 32,7 33,9 34,11 35,13 36,16 37,18 38,21 39,24 40,27 41,30 42,33 43,37 44,40 45,44 46,48 47,51 48,55 49,59 50,63 51,67 52,71 53,75 54,78 55,82 56,86 57,89 58,93 59,96 60,100 61,103 62,106 63,108 64,111 65,113 66,116 67,118 68,119 69,121 70,122 71,123 72,124 73,125 74,125 75,125 76,125 77,125 78,125 79,124 80,123 81,121 82,120 83,118 84,116 85,114 86,112 87,109 88,107 89,104 90,101 91,97 92,94 93,91 94,87 95,83 96,80 97,76 98,72 99,68 100,64 101,60 102,57 103,53 104,49 105,45 106,42 107,38 108,34 109,31 110,28 111,25 112,22 113,19 114,16 115,14 116,12 117,10 118,8 119,6 120,5 121,4 122,3 123,2 124,2 125,2 126,2 127,2 128,2 129,3 130,4 131,5 132,7 133,9 134,11 135,13 136,15 137,17 138,20 139,23 140,26 141,29 142,33 143,36 144,39 145,43 146,47 147,51 148,54 149,58 150,62 151,66 152,70 153,74 154,78 155,81 156,85 157,89 158,92 159,96 160,99 161,102 162,105 163,108 164,110 165,113 166,115 167,117 168,119 169,121 170,122 171,123 172,124 173,125 174,125 175,125 176,125 177,125 178,125 179,124 180,123 181,122 182,120 183,119 184,117 185,115 186,112 187,110 188,107 189,104 190,101 191,98 192,95 193,91 194,88 195,84 196,81 197,77 198,73 199,69 200,65 201,61 202,58 203,54 204,50 205,46 206,42 207,39 208,35 209,32 210,29 211,25 212,22 213,20 214,17 215,14 216,12 217,10 218,8 219,7 220,5 221,4 222,3 223,2 224,2 225,2 226,2 227,2 228,2 229,3 230,4 231,5 232,7 233,8 234,10 235,12 236,14 237,17 238,20 239,22 240,25 241,29 242,32 243,35 244,39 245,42 246,46 247,50 248,54 249,57 250,61 251,65 252,69 253,73 254,77 255,81 256,84 257,88 258,91 259,95 260,98 261,101 262,104 263,107 264,110 265,112 266,115 267,117 268,119 269,120 270,122 271,123 272,124 273,125 274,125 275,125 276,125 277,125 278,125 279,124 280,123 281,122 282,121 283,119 284,117 285,115 286,113 287,110 288,108 289,105 290,102 291,99 292,96 293,92 294,89 295,85 296,81 297,78 298,74 299,70 300,66 301,62 302,58 303,55 304,51 305,47 306,43 307,40 308,36 309,33 310,29 311,26 312,23 313,20 314,18 315,15 316,13 317,11 318,9 319,7 320,5 321,4 322,3 323,2 324,2 325,2 326,2 327,2 328,2 329,3 330,4 331,5 332,6 333,8 334,10 335,12 336,14 337,16 338,19 339,22 340,25 341,28 342,31 343,34 344,38 345,41 346,45 347,49 348,53 349,57 350,60 351,64 352,68 353,72 354,76 355,80 356,83 357,87 358,91 359,94 360,97 361,101 362,104 363,106 364,109 365,112 366,114 367,116 368,118 369,120 370,121 371,123 372,124 373,125 374,125 375,125 376,125 377,125 378,125 379,124 380,123 381,122 382,121 383,119 384,118 385,116 386,113 387,111 388,108 389,106 390,103 391,100 392,96 393,93 394,90 395,86 396,82 397,79 398,75 399,71 400,67 401,63 402,59 403,55 404,52 405,48 406,44 407,40 408,37 409,33 410,30 411,27 412,24 413,21 414,18 415,16 416,13 417,11 418,9 419,7 420,6 421,4 422,3 423,3 424,2 425,2 426,2 427,2 428,2 429,3 430,3 431,5 432,6 433,7 434,9 435,11 436,13 437,16 438,18 439,21 440,24 441,27 442,30 443,34 444,37 445,41 446,44 447,48 448,52 449,56 450,60 451,63 452,67 453,71 454,75 455,79 456,83 457,86 458,90 459,93 460,97 461,100 462,103 463,106 464,109 465,111 466,114 467,116 468,118 469,119 470,121 471,122 472,123 473,124 474,125 475,125 476,126 477,125 478,125 479,124 480,124 481,123 482,121 483,120 484,118 485,116 486,114 487,112 488,109 489,106 490,103 491,100 492,97 493,94 494,90 495,87 496,83 497,79 498,76 499,72 500,68 501,64 502,60 503,56 504,52 505,49 506,45 507,41 508,38 509,34 510,31 511,28 512,24 513,22 514,19 515,16 516,14 517,12 518,9 519,8 520,6 521,5 522,4 523,3 524,2 525,2 526,2 527,2 528,2 529,2 530,3 531,4 532,6 533,7 534,9 535,11 536,13 537,15 538,18 539,20 540,23 541,26 542,30 543,33 544,36 545,40 546,43 547,47 548,51 549,55 550,59 551,63 552,66 553,70 554,74 555,78 556,82 557,85 558,89 559,92 560,96 561,99 562,102 563,105 564,108 565,111 566,113 567,115 568,117 569,119 570,121 571,122 572,123 573,124 574,125 575,125 576,125 577,125 578,125 579,125 580,124 581,123 582,122 583,120 584,118 585,117 586,114 587,112 588,110 589,107 590,104 591,101 592,98 593,95 594,91 595,88 596,84 597,80 598,76 599,73 600,69 601,65 602,61 603,57 604,53 605,49 606,46 607,42 608,38 609,35 610,32 611,28 612,25 613,22 614,19 615,17 616,14 617,12 618,10 619,8 620,6 621,5 622,4 623,3 624,2 625,2 626,2 627,2 628,2 629,2 630,3 631,4 632,5 633,7 634,8 635,10 636,12 637,15 638,17 639,20 640,23 641,26 642,29 643,32 644,35 645,39 646,43 647,46 648,50 649,54 650,58 651,62 652,66 653,69 654,73 655,77 656,81 657,85 658,88 659,92 660,95 661,98 662,101 663,104 664,107 665,110 666,112 667,115 668,117 669,119 670,120 671,122 672,123 673,124 674,125 675,125 676,125 677,125 678,125 679,125 680,124 681,123 682,122 683,120 684,119 685,117 686,115 687,113 688,110 689,108 690,105 691,102 692,99 693,95 694,92 695,88 696,85 697,81 698,77 699,74 700,70 701,66 702,62 703,58 704,54 705,50 706,47 707,43 708,39 709,36 710,32 711,29 712,26 713,23 714,20 715,17 716,15 717,12 718,10 719,8 720,7 721,5 722,4 723,3 724,2 725,2 726,2 727,2 728,2 729,2 730,3 731,4 732,5 733,6 734,8 735,10 736,12 737,14 738,17 739,19 740,22 741,25 742,28 743,31 744,35 745,38 746,42 747,45 748,49 749,53 750,57 751,61 752,65 753,69 754,72 755,76 756,80 757,84 758,87 759,91 760,94 761,98 762,101 763,104 764,107 765,109 766,112 767,114 768,116 769,118 770,120 771,121 772,123 773,124 774,125 775,125 776,125 777,125 778,125 779,125 780,124 781,123 782,122 783,121 784,119 785,117 786,115 787,113 788,111 789,108 790,105 791,102 792,99 793,96 794,93 795,89 796,86 797,82 798,78 799,74 800,71 801,67 802,63 803,59 804,55 805,51 806,47 807,44 808,40 809,37 810,33 811,30 812,27 813,24 814,21 815,18 816,15 817,13 818,11 819,9 820,7 821,6 822,4 823,3 824,3 825,2 826,2 827,2 828,2 829,2 830,3 831,4 832,5 833,6 834,8 835,9 836,11 837,14 838,16 839,19 840,21 841,24 842,27 843,31 844,34 845,37 846,41 847,45 848,48 849,52 850,56 851,60 852,64 853,68 854,72 855,75 856,79 857,83 858,87 859,90 860,94 861,97 862,100 863,103 864,106 865,109 866,111 867,114 868,116 869,118 870,120 871,121 872,122 873,124 874,124 875,125 876,125 877,126 878,125 879,125 880,124 881,124 882,122 883,121 884,120 885,118 886,116 887,114 888,111 889,109 890,106 891,103 892,100 893,97 894,93 895,90 896,86 897,83 898,79 899,75 900,71 901,68 902,64 903,60 904,56 905,52 906,48 907,45 908,41 909,37 910,34 911,30 912,27 913,24 914,21 915,19 916,16 917,14 918,11 919,9 920,8 921,6 922,5 923,4 924,3 925,2 926,2 927,2 928,2 929,2 930,3 931,3 932,4 933,6 934,7 935,9 936,11 937,13 938,15 939,18 940,21 941,24 942,27 943,30 944,33 945,37 946,40 947,44 948,48 949,51 950,55 951,59 952,63 953,67 954,71 955,74 956,78 957,82 958,86 959,89 960,93 961,96 962,99 963,102 964,105 965,108 966,111 967,113 968,115 969,117 970,119 971,121 972,122 973,123 974,124 975,125 976,125 977,125 978,125 979,125 980,125 981,124 982,123 983,121 984,120 985,118 986,116 987,114 988,112 989,109 990,107 991,104 992,101 993,98 994,94 995,91 996,87 997,84 998,80 999,76 1000,72 1001,68 1002,65 1003,61 1004,57 1005,53 1006,49 1007,45 1008,42 1009,38 1010,35 1011,31 1012,28 1013,25 1014,22 1015,19 1016,16 1017,14 1018,12 1019,10 1020,8 1021,6 1022,5 1023,4"/></svg>